<?xml version="1.0" encoding="UTF-8" standalone="no"?>
<svg
   xmlns:dc="http://purl.org/dc/elements/1.1/"
   xmlns:cc="http://creativecommons.org/ns#"
   xmlns:rdf="http://www.w3.org/1999/02/22-rdf-syntax-ns#"
   xmlns:svg="http://www.w3.org/2000/svg"
   xmlns="http://www.w3.org/2000/svg"
   xmlns:sodipodi="http://sodipodi.sourceforge.net/DTD/sodipodi-0.dtd"
   xmlns:inkscape="http://www.inkscape.org/namespaces/inkscape"
   inkscape:version="1.0 (4035a4f, 2020-05-01)"
   inkscape:export-ydpi="600"
   inkscape:export-xdpi="600"
   inkscape:export-filename="/Users/harvey/Documents/Art/Inkscape/Logos/Endeavour.png"
   sodipodi:docname="Endeavour.svg"
   id="svg2776"
   version="1.1"
   viewBox="0 0 500 500"
   height="500"
   width="500">
  <defs
     id="defs2770" />
  <sodipodi:namedview
     units="px"
     showgrid="false"
     inkscape:document-rotation="0"
     inkscape:current-layer="layer1"
     inkscape:document-units="px"
     inkscape:cy="234.83885"
     inkscape:cx="412.21998"
     inkscape:zoom="1.1105791"
     inkscape:pageshadow="2"
     inkscape:pageopacity="0"
     borderopacity="1.0"
     bordercolor="#666666"
     pagecolor="#23272a"
     id="base" />
  <metadata
     id="metadata2773">
    <rdf:RDF>
      <cc:Work
         rdf:about="">
        <dc:format>image/svg+xml</dc:format>
        <dc:type
           rdf:resource="http://purl.org/dc/dcmitype/StillImage" />
        <dc:title></dc:title>
      </cc:Work>
    </rdf:RDF>
  </metadata>
  <g
     id="layer1"
     inkscape:groupmode="layer"
     inkscape:label="Layer 1">
    <g
       style="opacity:1"
       id="g3788" />
    <g
       style="opacity:1"
       id="g3794" />
    <g
       style="opacity:1"
       id="g3800" />
    <g
       style="opacity:1"
       id="g3806" />
    <g
       style="opacity:1"
       id="g3812" />
    <g
       style="opacity:1"
       id="g3818" />
    <g
       style="opacity:1"
       id="g3824" />
    <g
       style="opacity:1"
       id="g3830" />
    <g
       style="opacity:1"
       id="g3836" />
    <g
       style="opacity:1"
       id="g3842" />
    <g
       style="opacity:1"
       id="g3848" />
    <g
       style="opacity:1"
       id="g3854" />
    <g
       style="opacity:1"
       id="g3860" />
    <g
       style="opacity:1"
       id="g3866" />
    <g
       style="opacity:1"
       id="g3872" />
    <g
       style="opacity:1"
       id="g3878" />
    <g
       style="opacity:1"
       id="g3884" />
    <g
       style="opacity:1"
       id="g3890" />
    <g
       style="opacity:1"
       id="g3896" />
    <g
       style="opacity:1"
       id="g3902" />
    <g
       style="opacity:1"
       id="g3908" />
    <g
       style="opacity:1"
       id="g3914" />
    <g
       style="opacity:1"
       id="g3920" />
    <rect
       y="-1.8008623"
       x="0"
       height="517.74792"
       width="510.54446"
       id="rect3933"
       style="fill:#052137;stroke:none;stroke-width:10;stroke-linecap:round" />
    <g
       inkscape:export-ydpi="600"
       inkscape:export-xdpi="600"
       transform="translate(2,4)"
       style="opacity:1"
       id="g3926">
      <path
         d="m 375.07162,408.07726 c -1.4588,0.003 -2.85698,0.58388 -3.88868,1.61524 l -25.92285,33.72559 c -2.15486,2.15458 33.72559,-25.92286 33.72559,-25.92286 2.15486,-2.15458 2.15486,-5.64815 0,-7.80273 -1.03792,-1.03758 -2.44647,-1.61885 -3.91406,-1.61524 z m 0.0122,5.5172 -29.82413,29.82414 m 1.7514,-48.49563 c -1.45879,0.003 -2.85697,0.58388 -3.88867,1.61523 l -39.07715,46.87989 c -2.15486,2.15458 46.87988,-39.07716 46.87988,-39.07716 2.15486,-2.15458 2.15486,-5.64815 0,-7.80273 -1.03792,-1.03758 -2.44647,-1.61885 -3.91406,-1.61523 z m 0.0128,5.51689 -42.97851,42.97853 m 1.7509,-48.49542 c -1.4588,0.003 -2.85698,0.58387 -3.88868,1.61523 l -39.07715,46.87989 c -2.15486,2.15458 46.87989,-39.07716 46.87989,-39.07716 2.15486,-2.15458 2.15486,-5.64815 0,-7.80273 -1.03792,-1.03758 -2.44647,-1.61885 -3.91406,-1.61523 z m 0.0129,5.51703 -42.97852,42.97852 m 80.95385,-210.12641 c -1.45879,0.003 -2.85697,0.58388 -3.88867,1.61523 l -26.10841,33.91113 c -2.15486,2.15459 33.91114,-26.10839 33.91114,-26.10839 2.15487,-2.15458 2.15487,-5.64816 0,-7.80274 -1.03792,-1.03758 -2.44647,-1.61885 -3.91406,-1.61523 z m 0.0123,5.51643 -30.00978,30.00977 M 182.15365,394.92297 c -1.45975,0.003 -2.85877,0.58463 -3.89063,1.61718 l -39.07715,46.87891 c -2.15356,2.15436 46.87989,-39.07813 46.87989,-39.07813 2.15357,-2.15436 2.15357,-5.64642 0,-7.80078 -1.03712,-1.03781 -2.44491,-1.61976 -3.91211,-1.61718 z m 0.0113,5.51746 -42.97851,42.97852 M 312.85287,223.0089 c -1.4588,0.003 -2.85698,0.58388 -3.88868,1.61524 l -36.3916,44.19433 c -2.15486,2.15459 44.19434,-36.3916 44.19434,-36.3916 2.15486,-2.15458 2.15486,-5.64815 0,-7.80273 -1.03792,-1.03758 -2.44647,-1.61885 -3.91406,-1.61524 z m 0.0125,5.51657 -40.29297,40.29299 m -105.36989,99.84083 c -1.45975,0.003 -2.85877,0.58464 -3.89063,1.61719 l -43.82226,51.625 c -2.15357,2.15436 51.62499,-43.82422 51.62499,-43.82422 2.15357,-2.15436 2.15357,-5.64642 0,-7.80078 -1.03712,-1.03781 -2.44491,-1.61977 -3.9121,-1.61719 z m 0.0114,5.5176 -47.7246,47.7246 M 271.63998,223.00695 c -1.4588,0.003 -2.85698,0.58388 -3.88868,1.61524 l -36.3916,44.19433 c -2.15487,2.15458 44.19434,-36.3916 44.19434,-36.3916 2.15486,-2.15458 2.15486,-5.64815 0,-7.80273 -1.03792,-1.03758 -2.44647,-1.61885 -3.91406,-1.61524 z m 0.0122,5.51712 -40.29308,40.29309 m -64.15661,58.62729 c -1.45908,0.004 -2.8573,0.58512 -3.88868,1.61719 l -43.82421,51.625 c -2.15357,2.15436 51.62499,-43.82422 51.62499,-43.82422 2.15357,-2.15436 2.15357,-5.64642 0,-7.80078 -1.03712,-1.03781 -2.44491,-1.61977 -3.9121,-1.61719 z m 0.0119,5.51745 -47.72475,47.72475 m 103.87692,14.23632 c -1.45879,0.003 -2.85697,0.58388 -3.88867,1.61523 l -39.07715,46.87989 c -2.15487,2.15458 46.87988,-39.07716 46.87988,-39.07716 2.15486,-2.15458 2.15486,-5.64815 0,-7.80273 -1.03792,-1.03758 -2.44647,-1.61885 -3.91406,-1.61523 z m 0.0131,5.51731 -42.97853,42.9785 M 355.75326,56.46398 c -1.4588,0.0031 -2.85698,0.583877 -3.88868,1.615234 L 312.78743,104.9591 c -2.15487,2.15458 46.87989,-39.077151 46.87989,-39.077151 2.15487,-2.154582 2.15487,-5.648153 0,-7.802735 -1.03792,-1.037576 -2.44647,-1.61885 -3.91406,-1.615234 z m 0.0129,5.516946 -42.97854,42.978524 m -123.57733,118.0475 c -1.45907,0.004 -2.85729,0.58512 -3.88867,1.61719 l -65.83203,73.63378 c -2.15487,2.15459 73.63281,-65.83105 73.63281,-65.83105 2.15486,-2.15458 2.15486,-5.64815 0,-7.80273 -1.03712,-1.03781 -2.44491,-1.61977 -3.91211,-1.61719 z m 0.0119,5.51796 -69.73245,69.73245 M 273.32357,56.46398 c -1.45879,0.0031 -2.85697,0.583879 -3.88867,1.615234 L 230.35775,104.9591 c -2.15487,2.15458 46.87988,-39.077151 46.87988,-39.077151 2.15487,-2.154582 2.15487,-5.648153 0,-7.802735 -1.03792,-1.037576 -2.44647,-1.61885 -3.91406,-1.615234 z m 0.0132,5.517226 -42.97852,42.978524 m -63.15769,57.6273 c -1.45879,0.003 -2.85697,0.58388 -3.88867,1.61523 l -43.82129,51.62598 c -2.15487,2.15458 51.62402,-43.82324 51.62402,-43.82324 2.15487,-2.15458 2.15487,-5.64816 0,-7.80274 -1.03792,-1.03758 -2.44647,-1.61885 -3.91406,-1.61523 z m 0.0131,5.51725 -47.72364,47.72365 m 145.09137,179.09504 c -1.45879,0.003 -2.85697,0.58388 -3.88867,1.61523 l -39.07715,46.87989 c -2.15486,2.15458 46.87988,-39.07716 46.87988,-39.07716 2.15486,-2.15458 2.15486,-5.64815 0,-7.80273 -1.03792,-1.03758 -2.44647,-1.61885 -3.91406,-1.61523 z m 0.013,5.51717 -42.97852,42.97852 M 370.29623,83.135855 c -1.4588,0.0031 -2.85698,0.583877 -3.88868,1.615234 L 354.00228,104.9591 c -2.15487,2.15458 20.20801,-12.405276 20.20801,-12.405276 2.15487,-2.154582 2.15487,-5.648153 0,-7.802735 -1.03792,-1.037576 -2.44647,-1.61885 -3.91406,-1.615234 z m 0.0128,5.516818 -16.30665,16.306647 M 230.42513,223.00695 c -1.45879,0.003 -2.85697,0.58388 -3.88867,1.61524 l -36.39258,44.19531 c -2.15357,2.15436 44.19531,-36.39258 44.19531,-36.39258 2.15486,-2.15458 2.15486,-5.64815 0,-7.80273 -1.03792,-1.03758 -2.44647,-1.61885 -3.91406,-1.61524 z m 0.0127,5.51685 -40.29395,40.29394 m -22.94144,17.41187 c -1.45908,0.004 -2.8573,0.58511 -3.88868,1.61718 l -43.82421,51.62598 c -2.15488,2.15458 51.62499,-43.82324 51.62499,-43.82324 2.15487,-2.15458 2.15487,-5.64816 0,-7.80274 -1.03712,-1.03781 -2.44491,-1.61976 -3.9121,-1.61718 z m 0.0117,5.51784 -47.72463,47.72462 M 314.53841,56.46398 c -1.45879,0.0031 -2.85697,0.583879 -3.88867,1.615234 L 271.57259,104.9591 c -2.15487,2.15458 46.87989,-39.077151 46.87989,-39.077151 2.15487,-2.154582 2.15487,-5.648153 0,-7.802735 -1.03792,-1.037579 -2.44648,-1.618853 -3.91407,-1.615234 z m 0.013,5.517082 -42.97851,42.978528 m -104.37045,98.84228 c -1.4588,0.003 -2.85698,0.58388 -3.88868,1.61524 l -43.82324,51.62598 c -2.15486,2.15458 51.62598,-43.82325 51.62598,-43.82325 2.15486,-2.15458 2.15486,-5.64815 0,-7.80273 -1.03792,-1.03758 -2.44647,-1.61885 -3.91406,-1.61524 z m 0.012,5.51614 -47.72462,47.72463 M 232.11068,56.46398 c -1.45975,0.0031 -2.85877,0.584637 -3.89063,1.617187 L 189.1429,104.96008 c -2.15356,2.15436 46.87989,-39.078131 46.87989,-39.078131 2.15357,-2.154358 2.15357,-5.646424 0,-7.800782 -1.03712,-1.037813 -2.44491,-1.619766 -3.91211,-1.617187 z m 0.0113,5.517368 -42.97852,42.978522 m -21.94102,16.41232 c -1.45975,0.003 -2.85877,0.58463 -3.89063,1.61718 l -43.82129,51.62402 c -2.15486,2.15459 51.62402,-43.82324 51.62402,-43.82324 2.15357,-2.15436 2.15357,-5.64642 0,-7.80078 -1.03712,-1.03781 -2.44491,-1.61976 -3.9121,-1.61718 z m 0.0113,5.51738 -47.72365,47.72364 M 190.89584,56.46398 c -1.45908,0.0036 -2.8573,0.585114 -3.88868,1.617187 l -67.5166,75.317393 c -2.15486,2.15458 75.31738,-67.516611 75.31738,-67.516611 2.15357,-2.154358 2.15357,-5.646424 0,-7.800782 -1.03712,-1.037811 -2.44491,-1.619764 -3.9121,-1.617187 z m 0.0115,5.51751 -71.41701,71.41701 m 30.1907,-76.93452 c -1.45879,0.0031 -2.85697,0.583879 -3.88867,1.615234 l -26.3018,34.104492 c -2.15487,2.154582 34.10254,-26.301757 34.10254,-26.301757 2.15487,-2.154582 2.15487,-5.648153 0,-7.802735 -1.03744,-1.037097 -2.44519,-1.618331 -3.91211,-1.615234 z m 0.012,5.517287 -30.20305,30.203046"
         style="color:#000000;font-style:normal;font-variant:normal;font-weight:normal;font-stretch:normal;font-size:medium;line-height:normal;font-family:sans-serif;font-variant-ligatures:normal;font-variant-position:normal;font-variant-caps:normal;font-variant-numeric:normal;font-variant-alternates:normal;font-variant-east-asian:normal;font-feature-settings:normal;font-variation-settings:normal;text-indent:0;text-align:start;text-decoration:none;text-decoration-line:none;text-decoration-style:solid;text-decoration-color:#000000;letter-spacing:normal;word-spacing:normal;text-transform:none;writing-mode:lr-tb;direction:ltr;text-orientation:mixed;dominant-baseline:auto;baseline-shift:baseline;text-anchor:start;white-space:normal;shape-padding:0;shape-margin:0;inline-size:0;clip-rule:nonzero;display:inline;overflow:visible;visibility:visible;isolation:auto;mix-blend-mode:normal;color-interpolation:sRGB;color-interpolation-filters:linearRGB;solid-color:#000000;solid-opacity:1;vector-effect:none;fill:#28c074;fill-opacity:1;fill-rule:nonzero;stroke:none;stroke-width:11.034;stroke-linecap:round;stroke-linejoin:miter;stroke-miterlimit:4;stroke-dasharray:none;stroke-dashoffset:0;stroke-opacity:1;color-rendering:auto;image-rendering:auto;shape-rendering:auto;text-rendering:auto;enable-background:accumulate;stop-color:#000000;stop-opacity:1"
         id="path3930" />
    </g>
  </g>
</svg>
